<mxfile host="app.diagrams.net" agent="Mozilla/5.0 (Windows NT 10.0; Win64; x64) AppleWebKit/537.36 (KHTML, like Gecko) Chrome/138.0.0.0 Safari/537.36 Edg/138.0.0.0" version="28.0.7">
  <diagram name="Page-1" id="ZiM4X5h0yQgefwfFNf7T">
    <mxGraphModel dx="993" dy="1533" grid="0" gridSize="10" guides="1" tooltips="1" connect="1" arrows="1" fold="1" page="0" pageScale="1" pageWidth="850" pageHeight="1100" math="0" shadow="0">
      <root>
        <mxCell id="0" />
        <mxCell id="1" parent="0" />
        <mxCell id="l3_tipavYu4oGHDDYVQE-1" value="" style="whiteSpace=wrap;html=1;aspect=fixed;" vertex="1" parent="1">
          <mxGeometry x="58" y="-558" width="1132" height="1132" as="geometry" />
        </mxCell>
        <mxCell id="l3_tipavYu4oGHDDYVQE-23" value="" style="rounded=0;whiteSpace=wrap;html=1;" vertex="1" parent="1">
          <mxGeometry x="370" y="-422.5" width="220" height="91" as="geometry" />
        </mxCell>
        <mxCell id="l3_tipavYu4oGHDDYVQE-2" value="" style="rounded=0;whiteSpace=wrap;html=1;" vertex="1" parent="1">
          <mxGeometry x="128" y="-422" width="220" height="91" as="geometry" />
        </mxCell>
        <mxCell id="l3_tipavYu4oGHDDYVQE-5" value="RMAS Ready for Refund &amp;amp;&amp;nbsp;&lt;div&gt;Closed Status&lt;/div&gt;" style="text;html=1;align=center;verticalAlign=middle;whiteSpace=wrap;rounded=0;" vertex="1" parent="1">
          <mxGeometry x="183.5" y="-409" width="109" height="64" as="geometry" />
        </mxCell>
        <mxCell id="l3_tipavYu4oGHDDYVQE-8" value="RMAS Ready for Replacement &amp;amp; Closed Status" style="text;html=1;align=center;verticalAlign=middle;whiteSpace=wrap;rounded=0;" vertex="1" parent="1">
          <mxGeometry x="425.5" y="-409" width="109" height="64" as="geometry" />
        </mxCell>
        <mxCell id="l3_tipavYu4oGHDDYVQE-9" style="edgeStyle=none;curved=1;rounded=0;orthogonalLoop=1;jettySize=auto;html=1;exitX=0.5;exitY=1;exitDx=0;exitDy=0;fontSize=12;startSize=8;endSize=8;" edge="1" parent="1">
          <mxGeometry relative="1" as="geometry">
            <mxPoint x="475.5" y="-332" as="sourcePoint" />
            <mxPoint x="475.5" y="-332" as="targetPoint" />
          </mxGeometry>
        </mxCell>
        <mxCell id="l3_tipavYu4oGHDDYVQE-12" style="edgeStyle=none;curved=1;rounded=0;orthogonalLoop=1;jettySize=auto;html=1;exitX=1;exitY=0.5;exitDx=0;exitDy=0;fontSize=12;startSize=8;endSize=8;" edge="1" parent="1">
          <mxGeometry relative="1" as="geometry">
            <mxPoint x="1129" y="-376" as="sourcePoint" />
            <mxPoint x="1129" y="-376" as="targetPoint" />
          </mxGeometry>
        </mxCell>
        <mxCell id="l3_tipavYu4oGHDDYVQE-13" style="edgeStyle=none;curved=1;rounded=0;orthogonalLoop=1;jettySize=auto;html=1;exitX=1;exitY=0.5;exitDx=0;exitDy=0;fontSize=12;startSize=8;endSize=8;" edge="1" parent="1">
          <mxGeometry relative="1" as="geometry">
            <mxPoint x="1129" y="-376" as="sourcePoint" />
            <mxPoint x="1129" y="-376" as="targetPoint" />
          </mxGeometry>
        </mxCell>
        <mxCell id="l3_tipavYu4oGHDDYVQE-28" value="" style="rounded=0;whiteSpace=wrap;html=1;" vertex="1" parent="1">
          <mxGeometry x="617" y="-422.5" width="220" height="91" as="geometry" />
        </mxCell>
        <mxCell id="l3_tipavYu4oGHDDYVQE-30" value="RMAS Ready for Repair &amp;amp;&lt;br&gt;&lt;div&gt;Closed Status&lt;/div&gt;" style="text;html=1;align=center;verticalAlign=middle;whiteSpace=wrap;rounded=0;" vertex="1" parent="1">
          <mxGeometry x="672.5" y="-408.5" width="109" height="64" as="geometry" />
        </mxCell>
        <mxCell id="l3_tipavYu4oGHDDYVQE-33" value="" style="rounded=0;whiteSpace=wrap;html=1;" vertex="1" parent="1">
          <mxGeometry x="860" y="-422.5" width="220" height="91" as="geometry" />
        </mxCell>
        <mxCell id="l3_tipavYu4oGHDDYVQE-36" value="RMAS w/ NO ACTION Needed But need to be Closed" style="text;html=1;align=center;verticalAlign=middle;whiteSpace=wrap;rounded=0;" vertex="1" parent="1">
          <mxGeometry x="915.5" y="-408.5" width="109" height="64" as="geometry" />
        </mxCell>
        <mxCell id="l3_tipavYu4oGHDDYVQE-37" value="" style="rounded=0;whiteSpace=wrap;html=1;" vertex="1" parent="1">
          <mxGeometry x="123.5" y="-232" width="956.5" height="248" as="geometry" />
        </mxCell>
        <mxCell id="l3_tipavYu4oGHDDYVQE-39" value="&lt;b&gt;RMAs to process Today&lt;/b&gt;&lt;div&gt;&lt;i&gt;Please close RMA after refunding or greenlighting a replacement order&lt;/i&gt;&lt;/div&gt;" style="text;html=1;align=center;verticalAlign=middle;whiteSpace=wrap;rounded=0;" vertex="1" parent="1">
          <mxGeometry x="413" y="-527" width="383" height="30" as="geometry" />
        </mxCell>
        <mxCell id="l3_tipavYu4oGHDDYVQE-40" value="(button)" style="text;html=1;align=center;verticalAlign=middle;whiteSpace=wrap;rounded=0;" vertex="1" parent="1">
          <mxGeometry x="124" y="-425" width="60" height="30" as="geometry" />
        </mxCell>
        <mxCell id="l3_tipavYu4oGHDDYVQE-41" value="(button)" style="text;html=1;align=center;verticalAlign=middle;whiteSpace=wrap;rounded=0;" vertex="1" parent="1">
          <mxGeometry x="365.5" y="-427" width="60" height="30" as="geometry" />
        </mxCell>
        <mxCell id="l3_tipavYu4oGHDDYVQE-43" value="(button)" style="text;html=1;align=center;verticalAlign=middle;whiteSpace=wrap;rounded=0;" vertex="1" parent="1">
          <mxGeometry x="612.5" y="-427" width="60" height="30" as="geometry" />
        </mxCell>
        <mxCell id="l3_tipavYu4oGHDDYVQE-44" value="(button)" style="text;html=1;align=center;verticalAlign=middle;whiteSpace=wrap;rounded=0;" vertex="1" parent="1">
          <mxGeometry x="853" y="-425" width="60" height="30" as="geometry" />
        </mxCell>
        <mxCell id="l3_tipavYu4oGHDDYVQE-45" value="" style="rounded=0;whiteSpace=wrap;html=1;" vertex="1" parent="1">
          <mxGeometry x="128" y="-316" width="953" height="37" as="geometry" />
        </mxCell>
        <mxCell id="l3_tipavYu4oGHDDYVQE-46" value="ALL" style="text;html=1;align=center;verticalAlign=middle;whiteSpace=wrap;rounded=0;" vertex="1" parent="1">
          <mxGeometry x="574.5" y="-312.5" width="60" height="30" as="geometry" />
        </mxCell>
        <mxCell id="l3_tipavYu4oGHDDYVQE-49" value="(button on by default)" style="text;html=1;align=center;verticalAlign=middle;whiteSpace=wrap;rounded=0;" vertex="1" parent="1">
          <mxGeometry x="123.5" y="-320" width="130.5" height="30" as="geometry" />
        </mxCell>
        <mxCell id="l3_tipavYu4oGHDDYVQE-50" value="" style="shape=image;verticalLabelPosition=bottom;labelBackgroundColor=default;verticalAlign=top;aspect=fixed;imageAspect=0;image=data:image/png,iVBORw0KGgoAAAANSUhEUgAAA1AAAABRCAYAAADcr0cJAAAAAXNSR0IArs4c6QAAAARnQU1BAACxjwv8YQUAAAAJcEhZcwAADsMAAA7DAcdvqGQAADMJSURBVHhe7Z3Pq/RKet+/nT9gNnczS4+vdIw72hiujWntwsW2ugfTmKBsMtOEwBGOzXQzpE2Y6WXfIfgE0xqC4z4QQt8bAlacoZm4W+Nh8K6bYAa8UTrkSJM7y9nMZv4BZaGSVCpVldQ/zzn9Ph9o3veUqp769dTvp6ROmqYp3hibzQaDwUB0JlpC5UcQBEEQBEEQ16HzVhdQBEEQBEEQBEEQb403uYAiCIIgCIIgCIJ4i3T++//4n7SAIgiCIAiCIAiCaEEnTdP0e9//At/51jfEZ++ee80XcR+QfhI8pA+EDtIPgiBUUP9wO/Ky/ifiA4IgCIIgCIIgCEIOLaAIgiAIgiAIgiBaQgsogiAIgiAIgiCIlugXUIkPu9NBp/Kz4YXC88IBABL4dgcd20fCuSL00OnY8CuOOhL4nIzE5+K9AInvlXmzbXhh64TdnqZ6uDavHf+HCF/mtg2flXXoifXAfnxlSNqaPlwIr+OhWp2CmyI92SN1W0pC/plXbf81vRLaYe159tPqXS1Mu7Ydenaz7GNIfNhiH3gqtTzl+dI9L/OirB9duCL9WX9eK5f8eZOMinu9Lpr1QxgzLlmud4K+bR/BWypbqnuCuAy1fjjvi4Xnp87jm+Sfyxtu9/oFFAD0FojTFCn7xVsL0ZzLTK+HXvRS/p1sEOyL0AXhOsLjo4Vg07YYYhysBxj5XwegawpeTiTxbZhBF7OY5Ws1A/qjIxZ3r1CpTfUgcun0HRs/cQYhPDOAW+ini6CfLWacZV4HWzziEdu8TpZOGVrS1tqEU6NOj7YthR7MPrhnXQSm0PnyehXP0J2bsHkPgt6laYrGJDfJrBFi/Wxhm6ZYmhduN5eiqf0pyklbP5pwJQYGbg/RS7VEkk0AuIOsf9bJ0NVFG/3AHpPRG6yPN8R5bfsMmsaYpueNHFn3Z8dHEHdK4/hx5jy+Sf414dv9jfuA5gWUgOEMYe0PiAsXF64VoCjP+AA8PqJXPAeABC+RheFyCCvYNGYu8W10On08P/eLFW3/+cjOVEmCTQAsVmM4+erMcLBMdxjnf78D6vVwW147/rsmeUHUczEo9HOMXbpEu+nQcW2tFcr06NpSAn8eYREvuWdj7LYWJk+KrSnDwXi1AC6VbrSUmbwg6nVhgqVxNy42bt4q7dqfrn4ErxqMgSuUXybXLRSiJZW6aKkfvQUWVgCVyhCvSFNbaXreBNU9QVyF+vhx2Xl8Xf6NOLfPOZKjF1BJuC4nG4zBsFyRhusI7rDLPWWrWWsIBw6GfCUpMMY7xIseHrfczlpvgfgSBZNsEICbDFaeCatX7u9sUceOJv0Q/miC/X4Ck1v5enZpihIW4T14zDzI9kP4nl01ZRHC+VlkXDjRtIoF4+uhJiOppk+VLyF9Hdtj6Ws+gtXHzzzx5jmcvGpZysuBL7+2abobjAFcTPDkh0ga2kqNI9taK1Tp0balDYK9hQfxmdlF73kt1WkAgPFw+Y6Xl1nT1RCeydpKx0MotA2p7tVk1N3tUQDJBt7FkPXDNXT1cwzGAC44XTpHbl4XR+jHYOrebjfz3lDqali6V0wrD9iIOq9qC5WdX4k8/rlsLFDJ5VDWfW28EMY8iZ9yqJGMPwTxASEbPy45j28zP5S2w1q75oXK5rEePNVcVyarRZ9zDM0LqP0EZtHxdWDOgdlKWMiYXbarGGIduRgIo3qyCWANs/1zh6skHRWTveQFEWfOd3tCPE0yE580dhFN1nhYLdArFnVZ541ZnB1fuhH6ea3sI3SnO6TxApjMgekukzFnu7CjAN0VZ8KSn7LtI3SHK6T5yYOyHmQyNhhU0qchjydeoLePcBiuMjniEexR8bNwzhK7wnwnHwjFsnwqBj9V+SnTdLcYGK+26B7mMM2skbcd509pa82cmB7ZBN94gCW6VTDR7UUoLMYEvVNtKOjJZcp09QXTmLUV8ZRPqnsyGbl7qcOrmT6XR6Nsf/LnrcupVTgD2SFUVikV8z20lZHD6iI+Qj+MMWZ0EnECOl3tA26mq2nMzDpjlc5r3It4FPJypGNBk1xV3cvGixjj2pgsy7ts/CGIO6dp/MCZ83il/GPaoaxdN7XOLqbSua5GVlOfcwTNC6iKDfsWC0RYi9vDxgAuDojDtWShk2AT7PHcZ4Xbf8a+4fgvPyosdicveQHqJEx0e8/o2za8zQNWsTDRSjYIsMCU2aIYA7e0J+VNn/j/5+H2e0xMVjbmBPt9gE3M/Ba2LZp60MloAx9Pzy3yAFPYfTg2/iRb7Xs2W+mbE7YjLynLhvJTpumeMRyMl7us8W+tluarp7S1lpySHtlJUvKCSHSrEOPAn0zU7te0NWXkYTKh0NVaIhky3VPpeyjosNkVzB/ORNX+ZM+PKaeW4UozPon5XksZGawuzOP0w1nOgDMGug+SJl3N7Thzs05TofPQuIMb/2TyCj+ysaBBLqNW97rxgvcjy3siGX/4cARxjzSNHzhzHq+Sf0w7bNOu26KT1aLPaUvzAorHcDCeWXhei6tCAwM3wnweFSvUApaRcoCNseDNQWok8G0Tk/0z+vmKtv+M/aTpInhLRHOUVhgY77IL2NkuvG6H9Vi4S79pilQceGTU6uEEGefQJn4je/FAd8ZW+vGCTSivWZb3ieEM8SibbIoc3dZyhFMfsIms7ISAT4+uLRkDuKJMZJsh+8ehetKiifdkKjIlunp0ZJeQcQa19qdAVz/HUsg6w3wPXF0crR8Opm6A0dNBfEBoeWVdBYqX0NTHgracWveSvBs0/hAfOMrx40Lz+Jr8+22Hxy2gAMAZ4lFyh8EYuMDeQr3cBXMPwRykjpEdxT9uiwLfPmYVsDvm5rOSLP7JyEdh9p2E8Do2fGT2+XnSkjjvsPPnDsbLFRa5CUpOfkeECUw2Afa1FbwEYwC394w1Z//Z+g0ieT20kcHuHdTzdQat4rcAMyuFZHNgu46SssSJ5XenJL6NjlfWYRKu8dxiUXF8W8sx8GDtcYhLf0l8KOpAnR5NW0oMjGcWJqZXPEtCH3Y/wmJanx4DWVh/NIE1azA7PQZeplZXW6KSIesDqiEvi6IfrqKrH8FrI0yXRqKOHUGlfo/XD2M8g/X8fN1yvSeadLVwZzrRuEOjoJU82VjQnkrdy9qaOF6o8i4bf45uCwTxzlGMHxebxzfODyXtsGkeeMw8tk0fcQGOX0DJdqsBxZvCJOYeeSXpTIsqJnsh1lHz5PEYjPEOsXvAvDhWnAPbFcaGg+kiYseNNp7WeQgH04WFwOyg0zERuCuMnQe4YBfP2aIPczOz/wxcxK1eIZvdLUGQheuMDnBFu1QleT0oZBh8+lT5OoeG+OFgugArsw5GQW6YIylL49Tyu0+M8QpbBIVNcaaeTXpxYltjOMsY3fUItm3Dtm2M1t2iDnTpUbel7N5DvEXxzJwf4MbCG+B422lzjsMsrr5Gu3a/ptN8Eq2UqdLVY1DJyHQ46mfuowOO3GU/lqa7Ylk5aetHE05GNrjWdUwrQ1kXLfWjgoPp4rqlel/odJVzz3Xi5EG2SZ5qLDgGvu4V40VlzFPlXTb+CFERxN1z7Xl8m/mh2A4V7bpAMY+ttPucJlmXoZOmafq973+B73zrG+Kzd8+95ou4D0g/CR7SB0IH6QdBECqof7gdeVmfcAJ1KUJ4wq5l9nuftpAEQdwK6jsIgiAIgng9XnEB5WBZuViW/8TjQ4IgCB7qOwiCIAiCeD1ecQFFEARBEARBEATxvqAFFEEQBEEQBEEQREs6n/mfpwDw3fE38Zn/+d39SxAEQRAEQRAEcS75yzqKt/D96385FP28e7760VeQpqnoTBBvAnprDsFD+kDoIP0gCEIF9Q+3gS/nwoTvqx99hfdzF9AJFEEQBEEQBEEQl6RYQP3il7+qPrkDvjv+puhEEARBEARBEARxMq9zAvXlz/DzL0XHy0MnUARBfDAkCRL5Z+FP5xoyiQwqW4IgiHfLcSdQX/4lph+N8fe820/G+PpHX8FXP/oKvv7tHze6//23P8VXP/Hwp59U3X/+V7n/TzH9q58V7ufQ5gQqCT3Y+Yc4bQ8+P6Alfvms+Nnw8q911p7b8EJOQO159vNC1TOdbF1YIV4VTeESH7btI5H67cD2k6Pc1enN41alSwxr1+uFpTP06uE6nQ46hXAJbcM3pkuMJ4Fvd9DJy/BcavFzZUZ8kISeXeiDzTWK0LPRMUcYmR3YnJLI/YsfIhbaV+5LIjPxS3nlr/4B4zJeic4mPjxJmAoaP6FXzTuPLN62ac4R5cvLsIrKT+Ln44sNT5Qpqa+LwvfnlyL0sny2lXuNNLw25+aJm3NU6l7lXjyW6J/QThp1/cR21YiqTFTuKo71fwZ5m5UU9X3SMJc6Gun85CRJao5N37H+z6TlCdTP8PwHX8FXP/l3+KLi/mNM/8V/wW/+9a/wi1/+I/4Q/xzTn2jcv/xL/MXhj/C/fvkT/O0v/xF/ePhzPH+Zuf/pd4Fv//RX+MVP/wz4rpe5n0njCVTowewDs5h9iHPVRWAKCtZbIOY+1hlvLURzroL45/EM3blZ7YSE8GmaYpl/7fMY2bqwsnhVHBNOiH83No5yV6b32Lxij8lI3iicZe5/i0c8YpuHLwNraQyvS1evh170UqYr2SDY539ciEp9udUyew1u3EERHKGHPlymDzHcwCwW8/PIRZzusEtjuNE868NU/iHq9Q55Ey5QyDTGu0pbSLeP6D0Oqx8wDj30IxZvPAP6+YSNbTCYEzzz/is0+El8zKUP1PG2SnOOKF9Xhk1+Eh+jCRtf4hkwGWX1oijbm3FuG37cIt2NIarMm+Hc/F2VEF7/GdaW6Qr6TJ9U7gxRLxXtRK3rcv8FNfn3Toj1s4VtZZ7xIaCeS0lpakvHzCd1NMXzRml5AvUxHn/0K/zil3+Dyjs+frLBF7/97/EnnzI/f/ErPH2qcf/Z/8VPuwZ+jck0uv+AOD9s+u3fwK9/DcDXfg/OiHM/A/0JVAJ/HmERL+HkI4Exxm5rYfIkjpAlhjOEtT8gFh8AgOFgvFoAweYkRdDK1nFqvKeGuwBH5bW3wMIKoKmWV8KFawXY5IUXH4DHR/QEXxfDeGhfZtfCGGP3lidP94yzRLrMy97AwO0hekmA+IC99VC4P1h7HGKN/+QFUUWwBJVMgXAdwZ0KMxBnWU6wDRPdXoSXBAAMjHcp26xQofOTwB8FsB4VLUwZbxVpmgG5fFUZ8uj89LowjayvHT6yMmxZtlfj3tvwW85fuMZzb4FM/QyMl2wCr3IH5HqpbSclpa7r/Mvk3znJC6JeF6bofu9ccy51znzyLbdZDS1PoOT8PPnfQLEgauf+ycPHxd+//vA7+D/Jz4Cv/T7+ED/Aj78E8OWPER7+FZxPK0FPQnsClWwQ7C08iDVmdtF7XkuPuAEgCdf6hnfGJLdRto5T4z013Jkcm9fB9A2cvkgYDC0EbAUVriO4w67o5WIUZZb4sG0Pnmdn5hmJD89mx+g2b64Rlu788brgP98wKs0/SnOjmlu+U8TS4EtMpqry7fbmPsQRJNgEe1gPBpKXCL1u2ZLMrmSSz/kHAOwDjFgdyXYMW8lkJykDsQ/lUfWzpxA+IbBmmFaaWCg3SVLFW0mzEFYqn0coQymcH2MAF2yDJQmxjh4xdFqW7QnU2ioA4ICN2EaFNlzrO1TuIop+hHe3RwGkh/KyPkvXp/BowmZ9Imdi2KYvapRX7WMreZKVgRiWj+olAorFc7M70EYvFbRpn2ghn7/moOjnVWWicj9eXyRjmUpPxdMM8W+E8MwJ9vsJTFa3qrqW60MHth8yPVWYrTXKULSpG6CcS9XSnMAfsXKStRsZ/HxSWd+quqy32Yvpz5VoeQKl5hNsMP2D+l0nlbucj/H4n/4IP/zjT/H1P/5z4N/6+GeilxPQn0Cx3UHRzXiAxf+9n8AsOo8OzDkwW+lWysLOpxC+0nCaZOvC1lDvuOrRhKvEr0q3yl3/7Oi8GmPMrrVzoqMpXWaX7biEWEcuBjWFOhMufnMOuHmZ7SN0hyuk6RQvmZ0Q0jRF7EboZ7Mk+KM+4GbumUnTCH6S7TZ2V+zYfdVFMPKRIMTTJDNpSGMX0eQJodSNT1uEw3DFTEVyk8ys083Tk67c653IfcAk/ggT5DvWzdT891zMVinSeAtLZpbWgmQTwJqp+8LEt9ExJ8BiKjeXO4oQ3hyY1extHCzTZUW+Lt5qmvmwKvkltTKUUPVjYLxyEYxs2KM5MKum87Io2qq0jXLsUfQFZd+hcS9Q9SPV9r+aVUZTLqysz2qR3oaw3eEKabxgfU6bvqiFPKGPLfOkKgM+bL3Oe1iXEz6uXOXuzXqpoql9ZrSQ7yyxK8y08sm3qp517rKyUvnnUYxlcRs9leFgGS/Q6y0Q5/WjqOuaPkx3SOMFMJkD0x0rD/HEpY1O1fXiZkjnUrI0xxivWDm1Ph3K55O6+lbUJVBLx2X053qcdQIFAD/Fb+BPfsTuOh3yO1Bqdylf/iW+/sfAf/zRT/C3P1rC/A+f3uYOlOzkRTRvqdh4brFAhHUtEE+MA7/zWbtDwzWcJtm6sDWEeFujCVeJX5Fupbvm2Yl5dZYzoDagXpmmdBkDuDggDteIVDuI58DHv1uWd1V6LgaOke20Y4Eps0M1Bm52Lyt3zwMYDpbpDmNsEOz3mJhsQWhOsN8H2CQmur1n9G0b3uYBq3gJBzI3jp5bxAuTbV8K6SEuT+LbGAVu60Gt5p+ZSzhGphdTZnJWvFCl1SQkxFNgYcgUQhY2u4+huDd0JIk/R+TWF0Qy1PFW08zTJL9WhhJqfhIf9ghY7XbY7VbozuUv67gMirYqa6M8vW5xQlH0HTr3nETRj4RCf2R264sWVZ+FFultCDvg+502fVEbeaKfPE+qMoglaeHYo4vpLs10NCrvOsncm/RSjVrXeVrJT3x4NjvZMyfZDr+uTFTusrI6Rl/EscxsoadtUdW1qA95lfL/F2mSodCLW1KbS+nSfBRsPqmaZ+T1LatLSNJxCf25ImedQP2a8U/xycPvF3eafm+YmeTp3H/6Ul5u+n8v/4DfND7Gz//uB8CQ9w/88O/OvwSlPYEyBnBlJy/xAXvVBWPDwXhm4XmtmQ2calvbRraOU+M9Ndw5nJxXB1M3wOjpID54RQwM3AjzeQSrabR6M3Avy0hT9hIBZiO/mqF7mMM0PYS53XzFjXhNEt+GGbhYcRN548HCnrtEEx9KMzOZfxXFC1WWjlYmJBMvPmwVxb2ho8jM4vYTMzuJnWT/l5keltTjFdNcopffpgxlfpJNALgD9reBgQsEm6SxbE/jNdqqpB+56UDyFjiuDIwHC70urxOZjsrdQ61e6lDrOo9e7zNCeGaA7oydChane6dwXFkR1+RKc6nKfPLS9X1peedz3gnUpwP85ne/j7//EgB+hh+vswWR0v3j38AnhwQ/R+aeHH4H5sfZQuyn678r3Av/Z6I/gTIwnlmYmB6KqyGhD7sfYaGz0XCGeFTdkUpC+KNJi2NzBTrZOk6N99Rwl+DEvBrjGazn55vauTZhDFxg37zbdxWMAVxM8MSUONkE2QX13L244BTC69jwMYDbe8a6vPjEbI/z5w7GyxUWvQgvRRjOTXv6Wk8P4gt30B8yiY/RxMJWnMibXW63MMFL1EPXVPtPfBsdL8z8JyGeJoArbqeqZLK/s7WBvNeoyG91b6iJ/AJ89osXPfQWcfn2T4Y+Xl2aNfIVZVhB4cd4sLAvLlRz6dGW7amc0FaRWWHkL8Ep+g6de46h6Edk/REfDvU+QipfxTFh2/RFbeTJ/OTusjLgw4o4Q1iTJzbn4HRC6u6o9VKLTtd5NHpfwUL2JhQg2RzKvKvKROUuKyuVfx7VWBYr9JTdwyncZfWuQpYeUR+auISMG1CZS10izfx8sqm+ZXUJRTpyd5080f+NOOsECvg9PP018BeffAVf/ei38MPu32Rv21O5f+3f4NvdH+B3P/oUX//ot/DD7p/h8WsAPvXx37o/wO9+JMo5D+0JFDLb3ngLzNmxoDk/wI0lr/StoLnjZM5xmMXV12LW7tDIL21naGSLYZviVXFquDbo0lvjiLxWcDBdnL4HdjRt0mWMsRNN+26Gkb35Zs52EQMX8dJh7lsgyNw75hzYrrKTJt59dGD3qhxMFxYCs4NOx0TgrjA2JG6NE70sPVGfyZ9HN+3Q7pnwaYI9ntEXdZHZtJsdG3bHRGDNMDbU/o3xClvMM70258BiVe/zFDIBAEkMuNzfAhX5nREO7gX7mBrliyC08UrTrHgBBYeqDPmwSj/OElsrYOkxEVjbLD26sj2ZU9oqgF6EwyhLc9l3aNwLVP1Itf2PDpCcWKj6rDYcE7ZNX9RGnipPqjLQ4WBZzDk4nVC6n4BU10/FwXQBplcdjIL8goOuTFTusrJS+edRjGWmSk8dTBcRM/ey8bQW5eloow9NtJXB9z+q/18Tfi6lSLPxABeT7GUbQmhAN5/U1beiLpGHk+mDTp7M/23opGmafu/7X+C742+euIg6gS9/hp/jY/za18QHl+U//9c1vvOtyovXCeLN8L3vf3H3+pmEHsz1UGLaRYicrQ9JggQGjItMnBjXkElkHFm2Z+uHSHFHS5j0q9yB7EO677Q9U190Z+j09APk4v0DIYUv5zNPoE7ka9dfPKHNCdRdEsLjdkLLn2IH4W6hcngt8i+8d9ibA7UmscTlMNpPxltzDZlExnst2+e+/HXgbxDqiwiCuBbn3YF64+jvQN0rDpaVi3b577VMzF4LKofXwlnuyvLm3xxIEMTbQfXxSpU7MrP3rF0rnr8xqC+6Y3R6ShA34HVOoG7Eh3kCRRAEQRAEQRDEtaATKIIgCIIgCIIgiJZ0PvM/T/M/vjv+Jj7zP7+7fwmCIAiCIAiCIM4hf4lE8Ra+e3x7x73mi7gPSD8JHtIHQgfpB0EQKqh/uA3St/ARBEEQBEEQBEEQemgBRRAEQRAEQRAE0ZLXWUAlCZL38BEJgiCI98I1+tVryCQyqGwJgiDeLcctoBIfnvgh0tCDzT5UZ3vcE4V76NnomCOMzKp74uf+bXj+7UaVhEtnx/ZQiTrxy2fFz0aR7NpzG17ICag9z35eqHqmk60LK8Sroilc4sPOP5BY89uB7SdHuavTm8etSpcY1q7XC0tn6NXDdToddHhdFGkbvjFdYjwJfLtzuY9M1uLnyoz4IOE/DGpzjULVr8r9ix+ZFtpX7ksiM/FLeeWv/nHqMl6JzsrGERGNn9Cr5p1HFm/bNOeI8uVlWEXlRzWuycr24vD9+aUIvSyfbeVeIw2vzbl5UsyNlO7FY4n+Ce2kUddPbFeNqMpE5a7iWP9nkLdZSVHfJ7X5BOuXTsn/DevpLdNyAcUmhuYEzxX3EF7/GdY2RZrGcNFnlaFwT3zMIxdxusMujeFG82zgTnyMJsAsTpHGM2Aykg7oFyf0YPZZvGmKdNVFYAqTid4CMfch1nhrIZpzisM/j2fozs1qJySET9MUy/xLrsfI1oWVxavimHBC/Lv8K4Qt3ZXpPTav2GMykjdWZ5n73+IRj9jm4cvAWhrD69LV66EXvZTpSjYI9vkfF6JSX261zF4D6jhfj9BDHy7ThxhuYOr7VZV/iHq9q39gVCHTGHMfJk1TpNtH9B6H1Y9Thx76EYs3ngH9fMKmGkd4GvwkPubSB+p4W6U5R5SvK8MmP6pxTVG2N+PcNvy4fdsf0j03f1dFMTdSujNEvVS0E7Wuy/0X1OTfOyHWzxa2lXnGB0DTPIw4ipYLKAPjXcommRzhGs+9BaYO87Nkyqhyjw/YWw+s4zXwYO1xiJmsXhemAcBwMHzk3K9GAn8eYREv4eQjgTHGbmth8iSOkCWGM4S1P0CaPMPBeLUAgs1JCqmVrePUeE8NdwGOymtvgYUVQFMtr4QL1wqwyQsvPgCPj+gJvi6G8dC+zK4Fff399XCWSJd52RsYuD1EL4m6X1X5T14QVQRLUMkUCNcR3KyjL3GW5QTbMNHtRXhJAOU4UkHnJ4E/CmA9KlqYMt4q0jQDcvmqMuTR+ZGNay3L9mrcext+y/lTzY1U7oBcL7XtpKTUdZ1/mfw7J3lB1OvCFN0/MI6ahxE1Wi6g5CQvEVAMBO3ce91SZc0uG2iMAVywiWgSYh09Yigb3y5JskGwt/AgJtLsove8lh5xA0ASrvUN74xJbqNsHafGe2q4Mzk2r4PpGzh9kTAYWgjYCipcR3CHXdHLxSjKLPFh2x48z87MMxIfns2O5G3eXCMs3XlzTcF/vvtdmn+U5kY1t3x3l6XBl5hMVeXb7c19iCNIsAn2sB4Mdb9aofQPANgHGLE6kp1At5LJTlIGYh/Ko+pnTyF8QmDNMK00sVBukqSKt5JmIaxUPo9QhlI4P4pxrVXZnkCtrQIADtiIbVRow7W+Q+UuouhHeHd7FEB6KC/rs3R9Co8mbNYnciaGbfqiRnnVPraSJ1kZiGH5qDRzI5k70EYvFbRpn2ghn7/moOjnVWWicj9eXyRjmUpPxRNI8W+E8MwJ9vsJTFa3qrqW60MHth8yPVVcn2iUoWhTN6YyD5PVj6qMeZT6IakzKOJ5p5y1gAKAHtal8nO9ncpdjoHxykUwsmGP5sBsKTevuDSyCbzxAIv/ez+BWShHB+YcmK10u1vCzqcQvtJwmmTrwtZQ77jq0YSrxK9Kt8pd/+zovBpjzF7jFKopXWaXneCFWEcuBjWFOhMufnMOuHmZ7SN0hyuk6RQvmZ1QdiTvRuhnsyT4oz7gZu6ZSdMIfpLtNnZX7Bh/1UUw8pEgxNMkM2lIYxfR5Amh1I1PW4TDcMVMRXJTgAQ+l5505V7vRO4DJvFHmCDfsW6m5r/nYrZKkcZbWDKztBYkmwDWTN0XJr6NjjkBFtML9OchvDkwq9nbOFim1fFCF281zXxYlfySWhlKqPq55bimaKvSNsqxR9EXlH2Hxr1A1Y9U2/9qVhlNubCyPqtFehvCdocrpPGC9Tlt+qIW8oQ+tsyTqgz4sPU6V82N5O7NeqmiqX1mtJDvLLHLzb4KM3JVPevcZWWl8s+jGMviNnoqw8EyXqDXWyDO60dR1zV9mO6QxgtgMgemO1YeogVPG52q68VNUM7DVPXTooyV+iGpM+X8431y9gJqjy6muzSz241Ku12Vu5TEhz0CVrsddrsVunP5peaLIzt5Ec1bKndQtlggwroWiCfGgd/5rN2h4RpOk2xd2BpCvK3RhKvEr0i30l3z7MS8OssZUBtQr0xTuowBXBwQh2tEqh3Ec+Dj3y3Luyo9FwPHyHbascCU2aEaAze7l5W75wEMB8t0hzE2CPZ7TEzWiZoT7PcBNomJbu8ZfduGt3nAKl7CgcyNo+cW8cJk25dCeojLk/g2RoGLuKWZUs0/M3FyjEwvpszkrHihirazzgnxFFiFpYAsbHYfQ3Fv6EgSf47IrS+IZKjjraaZp0l+rQwl1PzcdFxTtFVZG+XpdYsTiqLv0LnnJIp+JBT6I7NbX7So+iy0SG9D2AHf77Tpi9rIE/3keVKVQSxJC4dqbiRzb9JLNWpd52klP/Hh2exkz5xkJ0S6MlG5y8rqGH0RxzKzhZ62RVXXoj7kVcr/X6RJhkIvboJqHqaqn7hFGev0Q6wz5fyDF/h+OGsBZTxY6HUHbEApbb917nvO2Ds+MBOUTQC4vH8UZlFXwxjAlZ28xAfsVReMDQfjmYXntWY2cKptbRvZOk6N99Rw53ByXh1M3QCjp4P44BUxMHAjzOcRrKbR6s3AvSwjTdlLBJiN/GqG7mEO0/QQ5nbzFTfiNUl8G2bgYsVN5FX9qsq/iuKFKktHKxOSiRcftori3tBRZGZx+4mZ7ZpOsv/LTA9L6vGKaS7Ry29ThjI/qnGtqWxP4zXaqqQfuelA8hY4rgx0c6O6e6jVSx1qXefR631GCM8M0J2xU8HidO8Ujisr4srU5mGn1M8p+iGJ59zu75U4awEFZwhr8oTMtJGz/Va5m11u9ZrgJeqha7IJQPEigzZ25pfAwHhmYWJ6LJ1AEvqw+xEWOhsNZ4hH1R2pJIQ/mrQ4Nlegk63j1HhPDXcJTsyrMZ7Ben6W20m/EsbABfbNu31XwRjAxQRPTImTTZBdUM/diwtOIbyODR8DuL1nrAv33D48f+5gvFxh0YvwUoTh3LSnr/X0IH5Li913TuJjNLGwFSfyin5V5T/xbXS8MPOfhHiaAK64naqSyf7O1gbyXqMi/yL9eX4BPvvFix56i7h8+ydDH68uzRr5ijKsoPCjHNe0ZXsqJ7RVZFYY+V5l0Xfo3HMMRT8i64/4cKj3EVL5Ko4J26YvaiNP5id3l5UBH1ZENTeSujtqvdSi03Uejd5XsJC9CQVINocy76oyUbnLykrln0c1lsUKPWX3ugt3Wb2rkKVH1IcmLiHjVuTzMFX9QFHGvAydfoh1ppx/vE/OW0DBwXILzM0OOh0TgbVlb45RuLN7LGbHht0xEVizbOXpLLG1Amabycu5Ms4ScZHODsz5AW7ctBrW3HEy5zjM4mraa3do5Je2MzSyxbBN8ao4NVwbdOmtcUReKziYLpr3OC5Gm3QZY+xE076bYWRvUpyzXcTARZw1NoxXWyDI3DvmHNiuspMm3n10YPeqHEwXFoK8zborjA2JW+NEL0tP1Gfy51F9QCROInyaYI9n9EVdVPSrKv/GeIUt5plem3Ngsar3eQqZAIAkBlzub4GK/M4IB/eCfUyN8kUQ2nilaVa8gIJDVYZ8WKUf1bimK9uTOaWtAuhFOIyyNJd9h8a9QNWPVNv/6ADJjrSqz2rDMWHb9EVt5KnypCoDHYq5kdL9BKS6fioOpgswvepgFOQXHHRlonKXlZXKP49iLDNVeupguoiYmZiNp7UoT0cbfWiirQy+/1H9/9rk8zBV/ajKOEenH5I6U84/3ilpmqaf+Z+nNyWO0zgWHS/PzfNFEEfwIehnvH1M8bgVnQkJZ+vDNfrVa8gkMo4s27P1QyRepL3eIq0lQeWepmn6jtsz9UV3hk5PP0Au3j+kVMYy+HI+8wTqRAwDxrtdcr51QnjcTmj5u9WOxluByuG1yL/w3mFv+dGaxBKX4xr96jVkEhnvtWyf+/LXgb9BqC8iCOJavM4CirgiDpaVC3r577VMzF4LKofXwlnuyvLm3xxIEMTbQfXBWZU7MrP3rF0rnr8xqC+6Y3R6SlwGKmMttIAiCIIgCIIgCIJoCS2gCIIgCIIgCIIgWtL5zP88FR0JgiAIgiAIgiCIku986xsAgE6apun3vv9F4XBP3Gu+iPuA9JPgIX0gdJB+EAShgvqH28CXM5nwEQRBEARBEARBtIQWUARBEARBEARBEC2hBRRBEMQ9kCRILv1xnmvIbMNrxXtLPoQ8EgRB3CnHLaASH574IdLQg80+VGd73BOFe/lhOxtV73L3q5L4RRrLuLkRrfY8+3mh/JntJ1L3IgyAxC/LpWOX8YVePUyn00HHCzOZto8ECXy7lFWQP2+IW0ohu0UaRHexLCoRZWl9Lx9cfJPUyvyGbYN4k/AfBrX9smWFno2OOcLIVPW3vH/xI9M2OFEFMpmJX8orf/WPU2v7c9k4wiGLt3BXyWTI83te2PK53B0K+bqyUuXx4vBjQ1Nf3MbPJbhVPB8Sr1mml4j7EjJuwXtJp4zafELfH+bkfVuTv0bec9kpaLmAYpNhc4LninsIr/8Ma5siTWO46LNCVriHHvqRizhNkcYzoM8GUZX7LegtsnhZ3N25WR0k+efst8y/xCo82+Vf6VOESXwbZtDFLGbuqxnQH8FPAGeZ+93iEY/Y5mGLyADAwMDtIXqpqmCyCQB3kH3sTBF3GxrToJPd66EXvZSNI9kg2Od/ECdT0U8X0fyVO6A77ATfDaGHPlg/mcZwA7PYwJhHLuJ0h10aw43m2YJI5R9iW97VPzCqkGmMuQ+TpinS7SN6j8Pqx6mV/blqHOFQxKuWyaHK7zlhcxIfc1WiFfKVZaXK4zm89XbZJn1t/JzCMYvID51LldGl5BzLJeO9R70R5nDx1mqYU4RYP1vYHjGP/JBouYAyMN6lbGLNEa7x3Ftg6jA/S1bICvfkJUIvn+gbDqaLCOtQ7X5zDAfj1QIINhqFOpUEmwBYrMZw8smK4WApm7xoMAaukL5Mrjs4QshVcOFaATZ5wuID8PiInuCLOAPjAdb+gFh0vyX0ZfLXw1kiXeZlz22mxAfsrYfC/cHa4xBr/CcviCqCJahkCoTrCG7W0Zc4S6S5jhgmur0I2Z6PYhzhUcTbaoxQ5VeZnhZhgWzhNwpgPSp6szby+bJS5PEs7qFdXisP15JLvD0uWdeXlPVGMZyhfk6RvCDqdWGK7gTQfgElJ3mJgGIgaHY3Hizsi8l/gs1hj+glUbq/CteapCYbBHBx9jrHGMAFt1C5lNwLMBhaCFjCwnUEd9gVvRBnkITrrDNLfNi2B8+zM5OgxIdnsyN5m9tdT8LSnTdPFfznu9+lyZENjznW3Cq7ch58ielSVb5NZpxXIcEm2MN6MLLFRbcc4sxu/ZSa9w8A2AcYsTqSmaW1kslOUrR9T7JBsLeQR9uEKl71GBEqzAGF/BbOfHpahg2fEFgzTNt0Z6r8cmWlyuNZ8LvkXPuzRwFqhgBJCI8zH69ywKaxTbMyS3zYRfnxZSmWawJ/NMF+P4FZ9AWSeLg81PodHvFEoKlPyvvLWhq48NK0c//nriTIzTQl6cw8SPraEB5vNsvHL/OvyleNA55yP5VxQFJ3UndJPcnSI7jXdaxZjjT5LdMvS0MxzjTpAk9TvSv1RqK7PMfq5ytSzCkglqcHPwnhmSzvRXkcmS+tnrx/zlpAAUAP67KAOG2QujtLbK0AZqeDjv2EQ34+oXJ/FYQdxP0kS1fx4xp25ZnKXXh2NgayQ6gsgRXzPVw57ibZZpedjoVYRy4GtG1xPlyZm3PAXbEdsX2E7nCFNJ3iZTQBZnF2JO9G6GezBvijPuBm7plp0Qh+ku2md1fsGH/VRTDykSDE0yQ7qk9jF9HkCaHUjU9bhMNwxcyTclOAbPDM05Ou3FdtzfdK4o8wQX7K30zNf8/FbJUijbewRHO1liSbANZMvUOb+DY65gRYTKsmfqegHCMcLNNlTX4tv9L0tAkbwpsDsxb2K3X53LOGsroc1fa3mlnC4xDeaI7uaodlYQrB0aJNF32MMYCbj5XhGs94zk4Fa7vWBsarBXq9BeJ8R18aT05Dv6NDKbeLqZiGnDb5cJbY5aZPhSl1UzpVfa2D4eO+MobvH4dwlP51+eLYRwDzUx0HJHUndY+FelKlp0HHavUti0tSo8r0N6dBOs40lVmbepfpTZNcHeeEvQTCHM6cA7OVqq5fMI1Z3iX9ZAVpvpr05P1z9gJqjy6mO2Y3HuV3oNTuzpLZhe+WGHLrUZX77Ylx4HcQa/d+OEWqPFO5C88uQGnGJzHfu2bcTbKNAVwcEIdrRJITSOIE+DLfLUtzz56LgWOwE8gFpmwyZAzc7C5a7p4HyM1FsUGw32Nisk7UnGC/D7BJTHR7z+jbNrzNA1bxEg5kbhw9t4gXJtueF9JDXJ7EtzEK3PpEUEHNPzNNcYxML6bMXK14iYxsclMjxFNgYcgUQhY2uwMkuU90Im3HiFp+GW3SI4ZN/Dkit74gkqGWXy2rqyL2B2a3nFjuA4xGfTxbM7XZeIs2XfQxnPlhuI6wWCwQrcPMfJvf1JMhi6egod/RoZWrokU+Eh+ezXbYzQnTvoZ0Jqq+FnCm+VUBZto/ddT+45b54vzUxoG27rw8VXpCjY7JaBMXNOlvkQYpjWXWot5lNMrVcE7YS1C5U73FAhHWsaau25piyfIl1nuTnrxDzlpAGQ8Wet1c0Uq7cZV7lQSZpZ+opir3G1HbPbsQoundORSy3o75XoaBgRthPo9g3WS2QJwG94KQNGUvEWD3U1YzdA9zmKaHML+zUnEjXpPsRTQuVtziwHiwsOcu0cSH0vxM5l9F8RKZpaOVCcnCgg9bRdX/y2mKN0M9RjTnV52eetjMlG8/MbPd2kn2f5nJY0ldvlhW7fJ4DSzMVjEW3IbmuTjDR0QvfmZxMH6AFb3Af4nOzM/t+x19PkJ4ZoDujO2wxws2EWyTTllfqxvDJf4vPhk5hreQnuulQV/vd47hYDyz8FxcJr1eOd8rZy2g4AxhTZ6QmVJzduMq99BDx8uOLJPwCZP9Y7Yrp3K/NUkIfzS5kqlFZno3GfmsXLL4KrbQrWFmfCPBfO8NYAxcYH+j3VaCDcQTPDGlSjZBdkE9dy8uODFdwwBu7xnr8uITs2vOnzsYL1dY9CK8FGE4t6YdKSE9iA+iD+JUEh+jiYWtuDgwu9yOboKXqIeuqfaf+DY6XsjuJoR4mkheQqOSyf6unXxzVOSL94maUMXbZoxok19VeqRh85deZL940UNvEZdvWy2C6uRLykqVx0sg6w/yZ70uTCMzr4pkbyJUIZOZWxg4Q1iTCSJ3AAMOhlaAydmnbZJ+hx8j2T3lfDMyuUQf05gPCzCzOkw2B1amTelU9bWQj+Fa/y3gy0QcB8S6U7nz8lTpkYXlw4nI/ItxQZP+Fmk4eZxprPcTuIZ+XgtniMfnNUJVOfN+j82XrN5FP++c8xZQcLDcAnOzg07HRGBt2asOFe7OEltkduxmP8Ljlh15q9xvAW8Tas5xmMXV1zXW7v3IL11XUIQxxjvE7oGVSxYftiu1OYWGbKEimcQo4r4IbWQbY+xE0z7iimQTIszZLnngIl46zH0LBJl7qWuC++jA7lU5mC4sBHmbdVcYGxK3xolePkFj8ufR3XWar0X4NMEez+iL7c8YY2YFMDs27I6JgJloqfwb4xW2mGdt2ZwDC0kfpJAJAEhiwFWbgVXkd0Y4uEKfqkMVr3KMKC9/t8pvJT3NYdWUYdXyFWWlyuNFqLa/0QF1sxljjNUiQl+cIClR9TFgZmzlaaAztABLeK09ssmXC3YZXXxWQ9LvVMonewtjZm5k42nNP9OgTYMuHw6mC7D0dDAK8ndYNqVT1deyp7UxXO+/mQjBKEtjdRyQ1Z3CvVJGqvS00TFRjiSuGqr0N6fh9HFGV+8Mrd7IOEU/JS+xqP3/GuR3/lXlzHNsvlroyTunk6Zp+r3vf4HvfOsb4rN3z73mi7gPPgT9TEIP5nooMe0iRM7WhyRBAgNG+xlXM9eQ2YbXiveWHJnHs/WDIO4UGmeof7gVfDmfeQJFvA9CeNzOavm75s4G8aGSf7m8w97ys2j7qjjiPIz2k/HWXENmG14r3lvyIeSRIK4EjTPEa0MLqA8CB8vK5cD8R6Z2xOUp3paWCm8OJAiCIIgLQOMM8drQAoogCIIgCIIgCKIltIAiCIIgCIIgCIJoSecz//NUdCQIgiAIgiAIgiAy+Bd1dNI0pQUUQRAEQRAEQRBEC/4/Hv/dD/WXaN0AAAAASUVORK5CYII=;" vertex="1" parent="1">
          <mxGeometry x="180.50179342830904" y="-211.99820657169113" width="848" height="81" as="geometry" />
        </mxCell>
        <mxCell id="l3_tipavYu4oGHDDYVQE-51" value="(Shows values when button is pressed, Default ALL)" style="text;html=1;align=center;verticalAlign=middle;whiteSpace=wrap;rounded=0;" vertex="1" parent="1">
          <mxGeometry x="280" y="-31" width="609" height="30" as="geometry" />
        </mxCell>
      </root>
    </mxGraphModel>
  </diagram>
</mxfile>
